# xmcd
#
# Track frame offsets:
#	150
#	11940
#	23459
#	36786
#	51090
#	62609
#	76156
#	91740
#	102848
#	114156
#
# Disc length: 1706 seconds
#
# Revision: 0
# Processed by: cddbd v1.5.2PL0 Copyright (c) Steve Scherf et al.
# Submitted via: EasyCDDAExtractor 10.0.3.1
#
DISCID=6706a80a
DTITLE=Jim Guitar - Taivas päällä maan
DYEAR=1900
DGENRE=
TTITLE0=Kuljen kotiin
TTITLE1=Anna sateesi armahtaa
TTITLE2=Taivas päällä maan
TTITLE3=Maailman rantoja kuljin
TTITLE4=Kolme villiruusua
TTITLE5=Sydän taas virkoaa
TTITLE6=Yö hälvenee
TTITLE7=Laulava enkeli
TTITLE8=Luona kanjonin
TTITLE9=Genesaret
EXTD=
EXTT0=
EXTT1=
EXTT2=
EXTT3=
EXTT4=
EXTT5=
EXTT6=
EXTT7=
EXTT8=
EXTT9=
PLAYORDER=
